<svg width="55" height="55" viewBox="0 0 55 55" fill="none" xmlns="http://www.w3.org/2000/svg">
<g filter="url(#filter0_d_30_87)">
<rect x="10" y="6" width="35" height="35" rx="17.5" fill="white"/>
<path d="M34.6667 23.75C35.0809 23.75 35.4167 23.4142 35.4167 23C35.4167 22.5858 35.0809 22.25 34.6667 22.25V23.75ZM21.3333 22.25C20.9191 22.25 20.5833 22.5858 20.5833 23C20.5833 23.4142 20.9191 23.75 21.3333 23.75V22.25ZM24.1387 27.6993C24.4329 27.9909 24.9078 27.9888 25.1994 27.6946C25.4909 27.4004 25.4888 26.9255 25.1946 26.634L24.1387 27.6993ZM23.1975 25.7106L23.7255 25.1779L23.7255 25.1779L23.1975 25.7106ZM23.1975 20.2894L22.6696 19.7567L22.6696 19.7567L23.1975 20.2894ZM25.1946 19.366C25.4888 19.0744 25.4909 18.5996 25.1994 18.3054C24.9078 18.0112 24.4329 18.009 24.1387 18.3006L25.1946 19.366ZM21.3499 23.2611L20.6059 23.3559L20.6059 23.3559L21.3499 23.2611ZM21.3499 22.7389L20.6059 22.644L20.6059 22.644L21.3499 22.7389ZM34.6667 23V22.25H21.3333V23V23.75H34.6667V23ZM24.6667 27.1666L25.1946 26.634L23.7255 25.1779L23.1975 25.7106L22.6696 26.2432L24.1387 27.6993L24.6667 27.1666ZM23.1975 20.2894L23.7255 20.8221L25.1946 19.366L24.6667 18.8333L24.1387 18.3006L22.6696 19.7567L23.1975 20.2894ZM23.1975 25.7106L23.7255 25.1779C23.1271 24.5848 22.7242 24.1839 22.453 23.8461C22.1912 23.5202 22.1143 23.3266 22.0939 23.1663L21.3499 23.2611L20.6059 23.3559C20.6757 23.9033 20.9368 24.3538 21.2834 24.7854C21.6205 25.2051 22.0963 25.6751 22.6696 26.2432L23.1975 25.7106ZM23.1975 20.2894L22.6696 19.7567C22.0963 20.3249 21.6205 20.7949 21.2834 21.2146C20.9368 21.6462 20.6757 22.0967 20.6059 22.644L21.3499 22.7389L22.0939 22.8337C22.1143 22.6734 22.1912 22.4798 22.453 22.1538C22.7242 21.8161 23.1271 21.4151 23.7255 20.8221L23.1975 20.2894ZM21.3499 23.2611L22.0939 23.1663C22.0798 23.0558 22.0798 22.9441 22.0939 22.8337L21.3499 22.7389L20.6059 22.644C20.5758 22.8804 20.5758 23.1196 20.6059 23.3559L21.3499 23.2611Z" fill="#535353"/>
</g>
<defs>
<filter id="filter0_d_30_87" x="0" y="0" width="55" height="55" filterUnits="userSpaceOnUse" color-interpolation-filters="sRGB">
<feFlood flood-opacity="0" result="BackgroundImageFix"/>
<feColorMatrix in="SourceAlpha" type="matrix" values="0 0 0 0 0 0 0 0 0 0 0 0 0 0 0 0 0 0 127 0" result="hardAlpha"/>
<feOffset dy="4"/>
<feGaussianBlur stdDeviation="5"/>
<feComposite in2="hardAlpha" operator="out"/>
<feColorMatrix type="matrix" values="0 0 0 0 0 0 0 0 0 0 0 0 0 0 0 0 0 0 0.25 0"/>
<feBlend mode="normal" in2="BackgroundImageFix" result="effect1_dropShadow_30_87"/>
<feBlend mode="normal" in="SourceGraphic" in2="effect1_dropShadow_30_87" result="shape"/>
</filter>
</defs>
</svg>
