<svg width="16" height="16" viewBox="0 0 16 16" fill="none" xmlns="http://www.w3.org/2000/svg">
<path d="M4.00498 15.4587C3.92069 15.4164 3.8546 15.3449 3.81898 15.2576C3.78335 15.1703 3.7806 15.073 3.81123 14.9837L4.31373 13.5125L5.29748 14.1762L4.50248 15.3312C4.44883 15.4089 4.36895 15.4645 4.27755 15.4879C4.18614 15.5114 4.08935 15.501 4.00498 15.4587V15.4587ZM11.92 15.4587C12.0937 15.3712 12.1775 15.1687 12.1137 14.9837L11.605 13.495L10.5687 14.0912L11.4225 15.3312C11.4761 15.4089 11.556 15.4645 11.6474 15.4879C11.7388 15.5114 11.8356 15.501 11.92 15.4587V15.4587Z" fill="#82AEC0"/>
<path d="M4.31375 13.5125L4.0575 14.2625C4.21625 14.1713 4.42375 14.18 4.58875 14.2613C4.75375 14.3425 4.88 14.485 4.97625 14.6425L5.2675 14.22C5.2675 14.2025 4.31375 13.5125 4.31375 13.5125ZM11.6087 13.4938L11.8862 14.3188C11.7275 14.2275 11.5375 14.23 11.3712 14.3113C11.2062 14.3925 11.08 14.535 10.9837 14.6925L10.6025 14.1388L11.6087 13.4938Z" fill="#2F7889"/>
<path d="M7.96249 14.4925C10.8627 14.4925 13.2137 12.1414 13.2137 9.24124C13.2137 6.34106 10.8627 3.98999 7.96249 3.98999C5.06231 3.98999 2.71124 6.34106 2.71124 9.24124C2.71124 12.1414 5.06231 14.4925 7.96249 14.4925Z" fill="#FFEFA1"/>
<path d="M7.96248 14.9475C11.3701 14.9475 14.1325 12.1851 14.1325 8.77754C14.1325 5.36995 11.3701 2.60754 7.96248 2.60754C4.55488 2.60754 1.79248 5.36995 1.79248 8.77754C1.79248 12.1851 4.55488 14.9475 7.96248 14.9475Z" fill="#CC2929"/>
<path d="M7.96248 14.8875C11.1657 14.8875 13.7625 12.2907 13.7625 9.08748C13.7625 5.88422 11.1657 3.28748 7.96248 3.28748C4.75922 3.28748 2.16248 5.88422 2.16248 9.08748C2.16248 12.2907 4.75922 14.8875 7.96248 14.8875Z" fill="#FF4638"/>
<path d="M7.96249 14.0912C10.726 14.0912 12.9662 11.851 12.9662 9.08749C12.9662 6.324 10.726 4.08374 7.96249 4.08374C5.199 4.08374 2.95874 6.324 2.95874 9.08749C2.95874 11.851 5.199 14.0912 7.96249 14.0912Z" fill="#FAFAFA"/>
<path d="M7.99998 9.64375C8.30718 9.64375 8.55623 9.39471 8.55623 9.0875C8.55623 8.78029 8.30718 8.53125 7.99998 8.53125C7.69277 8.53125 7.44373 8.78029 7.44373 9.0875C7.44373 9.39471 7.69277 9.64375 7.99998 9.64375Z" fill="#563428"/>
<path d="M7.96253 5.32131C7.86128 5.32131 7.77878 5.23881 7.77878 5.13756V4.58756C7.77878 4.48631 7.86128 4.40381 7.96253 4.40381C8.06378 4.40381 8.14628 4.48631 8.14628 4.58756V5.13756C8.14628 5.23881 8.06378 5.32131 7.96253 5.32131ZM7.96253 13.7701C7.86128 13.7701 7.77878 13.6876 7.77878 13.5863V13.0363C7.77878 12.9351 7.86128 12.8526 7.96253 12.8526C8.06378 12.8526 8.14628 12.9351 8.14628 13.0363V13.5863C8.14628 13.6876 8.06378 13.7701 7.96253 13.7701ZM12.4613 9.27006H11.9113C11.81 9.27006 11.7275 9.18756 11.7275 9.08631C11.7275 8.98506 11.81 8.90256 11.9113 8.90256H12.4613C12.5625 8.90256 12.645 8.98506 12.645 9.08631C12.645 9.18881 12.5625 9.27006 12.4613 9.27006ZM4.01378 9.27006H3.46378C3.36253 9.27006 3.28003 9.18756 3.28003 9.08631C3.28003 8.98506 3.36253 8.90256 3.46378 8.90256H4.01378C4.11503 8.90256 4.19753 8.98506 4.19753 9.08631C4.19753 9.18881 4.11503 9.27006 4.01378 9.27006Z" fill="#B2947C"/>
<path d="M7.9625 5.32131C7.86125 5.32131 7.77875 5.23881 7.77875 5.13756V4.58756C7.77875 4.48631 7.86125 4.40381 7.9625 4.40381C8.06375 4.40381 8.14625 4.48631 8.14625 4.58756V5.13756C8.14625 5.23881 8.06375 5.32131 7.9625 5.32131ZM7.9625 13.7701C7.86125 13.7701 7.77875 13.6876 7.77875 13.5863V13.0363C7.77875 12.9351 7.86125 12.8526 7.9625 12.8526C8.06375 12.8526 8.14625 12.9351 8.14625 13.0363V13.5863C8.14625 13.6876 8.06375 13.7701 7.9625 13.7701ZM5.82875 5.75881L5.55375 5.28256C5.5025 5.19506 5.5325 5.08256 5.62125 5.03131C5.70875 4.98006 5.82125 5.01006 5.8725 5.09881L6.1475 5.57506C6.19875 5.66256 6.16875 5.77506 6.08 5.82631C5.9925 5.87631 5.88 5.84631 5.82875 5.75881ZM10.0537 13.0751L9.77875 12.5988C9.7275 12.5113 9.75875 12.3988 9.84625 12.3476C9.93375 12.2963 10.0462 12.3276 10.0975 12.4151L10.3725 12.8913C10.4238 12.9788 10.3925 13.0913 10.305 13.1426C10.2162 13.1926 10.1037 13.1626 10.0537 13.0751Z" fill="#B2947C"/>
<path d="M5.82873 5.75873L5.55373 5.28248C5.50248 5.19498 5.53248 5.08248 5.62123 5.03123C5.70873 4.97998 5.82123 5.00998 5.87248 5.09873L6.14748 5.57498C6.19873 5.66248 6.16873 5.77498 6.07998 5.82623C5.99248 5.87623 5.87998 5.84623 5.82873 5.75873ZM10.0537 13.075L9.77873 12.5987C9.72748 12.5112 9.75873 12.3987 9.84623 12.3475C9.93373 12.2962 10.0462 12.3275 10.0975 12.415L10.3725 12.8912C10.4237 12.9787 10.3925 13.0912 10.305 13.1425C10.2162 13.1925 10.1037 13.1625 10.0537 13.075ZM4.45123 7.27123L3.97498 6.99623C3.88748 6.94498 3.85748 6.83373 3.90748 6.74498C3.95873 6.65748 4.06998 6.62748 4.15873 6.67748L4.63498 6.95248C4.72248 7.00373 4.75248 7.11498 4.70248 7.20373C4.65123 7.29248 4.53873 7.32248 4.45123 7.27123V7.27123ZM11.7675 11.495L11.2912 11.22C11.2037 11.1687 11.1737 11.0575 11.2237 10.9687C11.275 10.8812 11.3862 10.8512 11.475 10.9012L11.9512 11.1762C12.0387 11.2275 12.0687 11.3387 12.0187 11.4275C11.9675 11.5162 11.855 11.5462 11.7675 11.495ZM9.84498 5.82623C9.75748 5.77498 9.72748 5.66373 9.77748 5.57498L10.0525 5.09873C10.1037 5.01123 10.215 4.98123 10.3037 5.03123C10.3912 5.08248 10.4212 5.19373 10.3712 5.28248L10.0962 5.75873C10.045 5.84623 9.93373 5.87623 9.84498 5.82623ZM5.62123 13.1425C5.53373 13.0912 5.50373 12.98 5.55373 12.8912L5.82873 12.415C5.87998 12.3275 5.99123 12.2975 6.07998 12.3475C6.16748 12.3987 6.19748 12.51 6.14748 12.5987L5.87248 13.075C5.82123 13.1625 5.70873 13.1925 5.62123 13.1425ZM11.2237 7.20373C11.1725 7.11623 11.2025 7.00373 11.2912 6.95248L11.7675 6.67748C11.855 6.62623 11.9675 6.65748 12.0187 6.74498C12.07 6.83248 12.0387 6.94498 11.9512 6.99623L11.475 7.27123C11.3862 7.32248 11.2737 7.29248 11.2237 7.20373ZM3.90748 11.4287C3.85623 11.3412 3.88748 11.2287 3.97498 11.1775L4.45123 10.9025C4.53873 10.8512 4.65123 10.8825 4.70248 10.97C4.75373 11.0575 4.72248 11.17 4.63498 11.2212L4.15873 11.4962C4.06998 11.5462 3.95748 11.5162 3.90748 11.4287Z" fill="#B2947C"/>
<path d="M5.93628 7.93628L7.96253 9.08753" stroke="#563428" stroke-miterlimit="10" stroke-linecap="round"/>
<path d="M10.8587 7.42627L8.05499 9.08752" stroke="#563428" stroke-miterlimit="10" stroke-linecap="round"/>
<path d="M11.4988 4.06129L10.9813 3.72254L12.7425 0.602539L13.28 0.906289L11.4988 4.06129Z" fill="#82AEC0"/>
<path d="M13.8962 4.40129C14.05 4.44629 14.215 4.36129 14.2625 4.20879C14.6675 2.91504 14.1425 1.50754 12.8725 0.853786C11.5937 0.195036 10.205 0.627536 9.39625 1.73129C9.305 1.85504 9.32625 2.02879 9.44125 2.13004C9.7025 2.36129 10.2825 2.79629 11.4387 3.38129C12.66 3.99879 13.4975 4.28379 13.8962 4.40129V4.40129Z" fill="#CC2929"/>
<path d="M13.2312 1.28747C13.2312 1.28747 13.5575 0.871216 13.0837 0.607466C12.715 0.402466 12.4812 0.851216 12.4812 0.851216C12.4 0.999966 13.175 1.38997 13.2312 1.28747ZM4.45373 4.06497L2.66998 0.906216L3.20873 0.602466L4.94123 3.67247L4.45373 4.06497Z" fill="#82AEC0"/>
<path d="M2.10377 4.40129C1.95002 4.44629 1.78502 4.36129 1.73752 4.20879C1.33252 2.91504 1.85752 1.50754 3.12752 0.853786C4.40627 0.195036 5.79502 0.627536 6.60377 1.73129C6.69502 1.85504 6.67377 2.02879 6.55877 2.13004C6.29752 2.36129 5.71752 2.79629 4.56127 3.38129C3.34002 3.99879 2.50252 4.28379 2.10377 4.40129V4.40129Z" fill="#CC2929"/>
<path d="M2.76875 1.28747C2.76875 1.28747 2.4425 0.871216 2.91625 0.607466C3.285 0.402466 3.51875 0.851216 3.51875 0.851216C3.6 0.999966 2.825 1.38997 2.76875 1.28747Z" fill="#82AEC0"/>
<path d="M7.96252 2.9025V1.1875" stroke="#82AEC0" stroke-width="3.706" stroke-miterlimit="10"/>
<path d="M7.97002 1.79753C7.48002 1.79753 6.98877 1.61003 6.98877 1.61003V1.23878C6.98877 1.23878 7.44502 1.03503 7.99377 1.03503C8.54252 1.03503 8.95002 1.23878 8.95002 1.23878V1.61003C8.95127 1.61128 8.46127 1.79753 7.97002 1.79753V1.79753Z" fill="#82AEC0"/>
<path d="M7.11248 1.22373C7.05873 1.24373 7.05373 1.31748 7.10373 1.34623C7.17623 1.38748 7.26248 1.42998 7.29248 1.42498C7.70498 1.36123 8.30373 1.39248 8.71748 1.45498C8.74623 1.45998 8.82873 1.38998 8.88748 1.33748C8.91998 1.30748 8.91248 1.25623 8.87248 1.23748C8.74248 1.17873 8.44873 1.07373 7.99373 1.07373C7.57373 1.07373 7.26998 1.16248 7.11248 1.22373V1.22373Z" fill="#94D1E0"/>
<path d="M11.8825 0.987444C11.9213 1.11994 11.7788 1.22869 11.6638 1.30494C11.3738 1.49971 11.1409 1.76804 10.9888 2.08244C10.9163 2.23244 10.835 2.41619 10.6688 2.43994C10.6025 2.44869 10.5375 2.42869 10.475 2.40619C10.3788 2.37119 10.285 2.33119 10.1938 2.28494C10.085 2.22994 9.97376 2.15994 9.92376 2.04869C9.85876 1.90244 9.92001 1.72994 10.0075 1.59494C10.2163 1.27619 10.5563 1.07869 10.9063 0.948694C11.1175 0.869944 11.7775 0.628694 11.8825 0.987444V0.987444ZM3.26626 2.04119C3.34751 2.20994 3.43876 2.37369 3.54001 2.53119C3.66376 2.72369 3.80751 2.93869 3.75501 3.16119C3.69376 3.41619 3.41126 3.53869 3.16251 3.62369C3.03501 3.66744 2.90876 3.71119 2.78126 3.75494C2.71376 3.77869 2.64251 3.80244 2.57126 3.79869C2.45876 3.79369 2.35751 3.72244 2.29376 3.63119C2.22876 3.53994 2.19626 3.42994 2.17126 3.32119C2.07751 2.90244 2.09626 2.45869 2.22501 2.04869C2.30001 1.81369 2.41751 1.56619 2.68376 1.54744C3.00751 1.52494 3.14501 1.78869 3.26626 2.04119V2.04119Z" fill="#FF4638"/>
</svg>
