<svg width="12" height="12" viewBox="0 0 12 12" fill="none" xmlns="http://www.w3.org/2000/svg">
<g clip-path="url(#clip0_26_84)">
<path d="M5.99997 0.857117C8.84012 0.857117 11.1428 3.15983 11.1428 5.99997C11.1428 8.84012 8.84012 11.1428 5.99997 11.1428C3.15983 11.1428 0.857117 8.84012 0.857117 5.99997C0.857117 3.15983 3.15983 0.857117 5.99997 0.857117ZM5.99997 1.57155C3.55797 1.57155 1.57155 3.55797 1.57155 5.99997C1.57155 8.44197 3.55797 10.4284 5.99997 10.4284C8.44197 10.4284 10.4284 8.44197 10.4284 5.99997C10.4284 3.55797 8.44197 1.57155 5.99997 1.57155ZM5.67855 2.99997C5.75622 2.99998 5.83126 3.02811 5.8898 3.07916C5.94834 3.13021 5.98641 3.20074 5.99697 3.27769L5.99997 3.3214V5.99997H7.8214C7.90284 6 7.98123 6.03094 8.04074 6.08653C8.10025 6.14213 8.13643 6.21824 8.14198 6.29949C8.14754 6.38074 8.12204 6.46107 8.07065 6.52424C8.01925 6.58742 7.9458 6.62873 7.86512 6.63983L7.8214 6.64283H5.67855C5.60087 6.64283 5.52583 6.6147 5.46729 6.56365C5.40875 6.51259 5.37068 6.44207 5.36012 6.36512L5.35712 6.3214V3.3214C5.35712 3.23615 5.39098 3.1544 5.45126 3.09412C5.51154 3.03384 5.5933 2.99997 5.67855 2.99997Z" fill="#535353"/>
</g>
<defs>
<clipPath id="clip0_26_84">
<rect width="12" height="12" fill="white"/>
</clipPath>
</defs>
</svg>
