<svg width="12" height="12" viewBox="0 0 12 12" fill="none" xmlns="http://www.w3.org/2000/svg">
<g clip-path="url(#clip0_4663_924)">
<path d="M10.8316 3.96564C10.5687 3.33813 10.1862 2.76776 9.70545 2.28634C9.22613 1.80408 8.65676 1.42065 8.02967 1.15782C7.38726 0.887274 6.69703 0.748591 5.99998 0.750011H5.97654C5.26756 0.753526 4.58201 0.894151 3.93631 1.17071C3.3146 1.43623 2.75057 1.82034 2.27576 2.30157C1.79967 2.78192 1.42155 3.35029 1.16248 3.97501C0.893554 4.62465 0.757287 5.32153 0.761701 6.02462C0.765216 6.8379 0.959747 7.64532 1.32303 8.3672V10.1484C1.32303 10.4461 1.56443 10.6875 1.86092 10.6875H3.63983C4.36507 11.0535 5.16538 11.246 5.97772 11.25H6.00233C6.70311 11.25 7.38162 11.1141 8.02147 10.8481C8.64539 10.5884 9.21263 10.2094 9.69139 9.73243C10.1742 9.25314 10.5539 8.69298 10.8199 8.06837C11.0953 7.4215 11.2359 6.7336 11.2394 6.02345C11.2418 5.30978 11.1035 4.6172 10.8316 3.96564ZM3.66092 6.56251C3.35154 6.56251 3.09959 6.31056 3.09959 6.00001C3.09959 5.68946 3.35154 5.43751 3.66092 5.43751C3.97029 5.43751 4.22225 5.68946 4.22225 6.00001C4.22225 6.31056 3.97147 6.56251 3.66092 6.56251ZM5.99998 6.56251C5.69061 6.56251 5.43865 6.31056 5.43865 6.00001C5.43865 5.68946 5.69061 5.43751 5.99998 5.43751C6.30936 5.43751 6.56131 5.68946 6.56131 6.00001C6.56131 6.31056 6.30936 6.56251 5.99998 6.56251ZM8.33904 6.56251C8.02967 6.56251 7.77772 6.31056 7.77772 6.00001C7.77772 5.68946 8.02967 5.43751 8.33904 5.43751C8.64842 5.43751 8.90037 5.68946 8.90037 6.00001C8.90037 6.31056 8.64842 6.56251 8.33904 6.56251Z" fill="white"/>
</g>
<defs>
<clipPath id="clip0_4663_924">
<rect width="12" height="12" fill="white"/>
</clipPath>
</defs>
</svg>
