<svg width="20" height="20" viewBox="0 0 20 20" fill="none" xmlns="http://www.w3.org/2000/svg">
<path d="M15.8333 19.4167L15.3333 19C13.6667 17.4167 12.5 16.4167 12.5 15.1667C12.5 14.1667 13.3333 13.3334 14.3333 13.3334C14.9167 13.3334 15.5 13.5834 15.8333 14C16.1667 13.5834 16.75 13.3334 17.3333 13.3334C18.3333 13.3334 19.1667 14.0834 19.1667 15.1667C19.1667 16.4167 18 17.4167 16.3333 19L15.8333 19.4167ZM15 1.66669C15.9167 1.66669 16.6667 2.41669 16.6667 3.33335V10.9L15.8333 10.8334L15 10.9V3.33335H10.8333V10L8.74999 8.12502L6.66666 10V3.33335H4.99999V16.6667H10.9C11 17.2667 11.2083 17.825 11.5 18.3334H4.99999C4.08333 18.3334 3.33333 17.5834 3.33333 16.6667V3.33335C3.33333 2.41669 4.08333 1.66669 4.99999 1.66669H15Z" fill="#535353"/>
</svg>
