<svg width="24" height="24" viewBox="0 0 24 24" fill="none" xmlns="http://www.w3.org/2000/svg">
<path d="M12.6 14.4C13.0774 14.4 13.5352 14.5897 13.8728 14.9272C14.2104 15.2648 14.4 15.7226 14.4 16.2V16.8C14.4 19.1652 12.168 21.6 8.39999 21.6C4.63199 21.6 2.39999 19.1652 2.39999 16.8V16.2C2.39999 15.7226 2.58964 15.2648 2.9272 14.9272C3.26477 14.5897 3.7226 14.4 4.19999 14.4H12.6ZM12.6 15.6H4.19999C4.04086 15.6 3.88825 15.6632 3.77573 15.7758C3.66321 15.8883 3.59999 16.0409 3.59999 16.2V16.8C3.59999 18.5256 5.31839 20.4 8.39999 20.4C11.4816 20.4 13.2 18.5256 13.2 16.8V16.2C13.2 16.0409 13.1368 15.8883 13.0243 15.7758C12.9117 15.6632 12.7591 15.6 12.6 15.6ZM8.39999 6.60002C9.27521 6.60002 10.1146 6.9477 10.7334 7.56657C11.3523 8.18544 11.7 9.02481 11.7 9.90002C11.7 10.7752 11.3523 11.6146 10.7334 12.2335C10.1146 12.8523 9.27521 13.2 8.39999 13.2C7.52478 13.2 6.68541 12.8523 6.06654 12.2335C5.44767 11.6146 5.09999 10.7752 5.09999 9.90002C5.09999 9.02481 5.44767 8.18544 6.06654 7.56657C6.68541 6.9477 7.52478 6.60002 8.39999 6.60002ZM19.2 2.40002C19.8053 2.40014 20.3882 2.62895 20.8319 3.04063C21.2756 3.45231 21.5474 4.01644 21.5928 4.62002L21.6 4.80002V7.20002C21.6002 7.80552 21.3715 8.3887 20.9598 8.83268C20.5481 9.27666 19.9838 9.54861 19.38 9.59402L19.2 9.60002H17.3988L15.9612 11.52C15.3252 12.3672 14.0364 12.024 13.8288 11.0688L13.8084 10.9356L13.8 10.8V9.52202L13.7064 9.49802C13.2751 9.36735 12.8892 9.11803 12.5927 8.77853C12.2963 8.43904 12.1013 8.02304 12.03 7.57802L12.006 7.37882L12 7.20002V4.80002C11.9998 4.19453 12.2285 3.61134 12.6402 3.16737C13.0519 2.72339 13.6162 2.45144 14.22 2.40602L14.4 2.40002H19.2ZM8.39999 7.80002C8.12422 7.80002 7.85114 7.85434 7.59636 7.95988C7.34158 8.06541 7.11007 8.2201 6.91507 8.4151C6.72007 8.6101 6.56538 8.84161 6.45985 9.09639C6.35431 9.35117 6.29999 9.62425 6.29999 9.90002C6.29999 10.1758 6.35431 10.4489 6.45985 10.7037C6.56538 10.9584 6.72007 11.1899 6.91507 11.3849C7.11007 11.58 7.34158 11.7346 7.59636 11.8402C7.85114 11.9457 8.12422 12 8.39999 12C8.95695 12 9.49109 11.7788 9.88492 11.3849C10.2787 10.9911 10.5 10.457 10.5 9.90002C10.5 9.34307 10.2787 8.80893 9.88492 8.4151C9.49109 8.02127 8.95695 7.80002 8.39999 7.80002ZM19.2 3.60002H14.4C14.1061 3.60006 13.8224 3.70797 13.6027 3.90328C13.3831 4.09859 13.2428 4.36772 13.2084 4.65962L13.2 4.80002V7.20002C13.2 7.49394 13.3079 7.77763 13.5033 7.99727C13.6986 8.21691 13.9677 8.35724 14.2596 8.39162L14.4 8.40002H15V10.8L16.8 8.40002H19.2C19.4939 8.39999 19.7776 8.29208 19.9972 8.09677C20.2169 7.90146 20.3572 7.63233 20.3916 7.34042L20.4 7.20002V4.80002C20.4 4.5061 20.292 4.22242 20.0967 4.00278C19.9014 3.78314 19.6323 3.64281 19.3404 3.60842L19.2 3.60002Z" fill="black"/>
</svg>
