<svg width="16" height="16" viewBox="0 0 16 16" fill="none" xmlns="http://www.w3.org/2000/svg">
<path d="M14.25 6.55C14.25 6.55 13.5 7.25 12.225 8.075C11.875 6.05 10.9 3.55 8.99999 0.5C8.99999 0.5 8.37499 3.775 6.29999 6.85C5.39999 5.45 4.99999 4.35 4.99999 4.35C-1.50001 10.875 3.89999 15.5 7.29999 15.5C11.65 15.5 15.475 13.4 14.25 6.55" fill="#FF9D33"/>
<path d="M11.675 12.35C12.05 11.525 12.325 10.45 12.375 9.09995C12.375 9.09995 11.85 9.54995 10.95 10.125C10.7 8.77495 10.025 7.12495 8.69999 5.07495C8.69999 5.07495 8.27499 7.24995 6.82499 9.32495C6.19999 8.39995 5.92499 7.64995 5.92499 7.64995C4.84999 9.34995 4.42499 10.7 4.39999 11.775C3.79999 11.55 3.42499 11.375 3.42499 11.375C4.44999 14.425 6.57499 15.1 7.52499 15.1C9.22499 15.1 10.95 14.6 12.65 12.175C12.65 12.15 12.275 12.25 11.675 12.35" fill="#FFCE31"/>
<path d="M5.47503 10.975C5.47503 10.975 6.17503 11.925 6.70003 11.7C6.70003 11.7 7.70003 10.125 9.15003 9.25C9.15003 9.25 8.85003 11.65 9.20003 12.075C9.65003 12.65 10.875 11.45 10.875 11.45C10.875 12.875 9.32503 14.65 7.92503 14.65C6.57503 14.65 4.62503 13.1 5.47503 10.975" fill="#FFDF85"/>
<path d="M12.45 4.525C12.975 3.775 13.325 2.975 13.325 2.975C14.2 4.425 13.675 5.3 13.3 5.575C12.775 5.975 11.85 5.4 12.45 4.525V4.525ZM2.89998 4.275C2.37498 3.4 2.32498 2.3 2.32498 2.3C1.07498 4.175 1.54998 5.225 1.97498 5.525C2.52498 5.95 3.47498 5.3 2.89998 4.275ZM5.79998 2.325C5.87498 1.725 5.62498 1.125 5.62498 1.125C6.79998 1.9 6.79998 2.55 6.64998 2.825C6.42498 3.15 5.72498 3 5.79998 2.325Z" fill="#FF9D33"/>
</svg>
