<svg width="25" height="23" viewBox="0 0 25 23" fill="none" xmlns="http://www.w3.org/2000/svg">
<path d="M6.5559 3.96556C9.33384 2.028 10.7228 1.05923 12.3091 1.00336C12.4363 0.99888 12.5637 0.99888 12.6909 1.00336C14.2772 1.05923 15.6662 2.028 18.4441 3.96556C21.222 5.90311 22.611 6.87189 23.1565 8.30291C23.2003 8.41771 23.2397 8.534 23.2745 8.65157C23.7094 10.1171 23.1788 11.6846 22.1178 14.8197C21.0567 17.9547 20.5262 19.5222 19.277 20.4625C19.1768 20.5379 19.0738 20.6098 18.9681 20.678C18.3395 21.0834 17.6201 21.2955 16.6667 21.4063C15.6217 21.5279 14.2956 21.5279 12.5 21.5279C10.7044 21.5279 9.37836 21.5279 8.33334 21.4063C7.37993 21.2955 6.66048 21.0834 6.03191 20.678C5.92622 20.6098 5.82317 20.5379 5.72297 20.4625C4.47386 19.5222 3.94332 17.9547 2.88224 14.8197C1.82117 11.6846 1.29063 10.1171 1.72547 8.65157C1.76035 8.534 1.79971 8.41771 1.84348 8.30291C2.389 6.87189 3.77797 5.90311 6.5559 3.96556Z" fill="#EFAC25"/>
<path d="M2.88224 14.8197L3.59266 14.5792L3.59266 14.5792L2.88224 14.8197ZM1.72547 8.65157L2.44449 8.86491L1.72547 8.65157ZM6.5559 3.96556L6.12685 3.35041L6.12685 3.35041L6.5559 3.96556ZM1.84348 8.30291L2.54428 8.57007L1.84348 8.30291ZM6.03191 20.678L5.62536 21.3082L5.62536 21.3082L6.03191 20.678ZM5.72297 20.4625L5.27191 21.0617L5.27191 21.0617L5.72297 20.4625ZM22.1178 14.8197L21.4074 14.5792L22.1178 14.8197ZM19.277 20.4625L19.7281 21.0617L19.7281 21.0617L19.277 20.4625ZM18.9681 20.678L19.3747 21.3082L18.9681 20.678ZM18.4441 3.96556L18.8732 3.35041L18.4441 3.96556ZM23.1565 8.30291L22.4557 8.57007L22.4557 8.57007L23.1565 8.30291ZM23.2745 8.65157L22.5555 8.86491L23.2745 8.65157ZM12.6909 1.00336L12.6645 1.7529L12.6909 1.00336ZM12.3091 1.00336L12.3355 1.7529L12.3091 1.00336ZM11.75 18.8197C11.75 19.2339 12.0858 19.5697 12.5 19.5697C12.9142 19.5697 13.25 19.2339 13.25 18.8197H11.75ZM13.25 16.8197C13.25 16.4054 12.9142 16.0697 12.5 16.0697C12.0858 16.0697 11.75 16.4054 11.75 16.8197H13.25ZM16.6667 21.4063L16.7533 22.1513L16.6667 21.4063ZM2.88224 14.8197L3.59266 14.5792C3.05669 12.9956 2.67556 11.8662 2.47566 10.9497C2.27971 10.0514 2.27622 9.43202 2.44449 8.86491L1.72547 8.65157L1.00645 8.43823C0.739881 9.33666 0.784239 10.2338 1.01012 11.2694C1.23205 12.2869 1.64673 13.5086 2.17183 15.0601L2.88224 14.8197ZM6.5559 3.96556L6.12685 3.35041C4.75122 4.30988 3.67037 5.06253 2.87037 5.75826C2.05808 6.46467 1.47609 7.16112 1.14267 8.03575L1.84348 8.30291L2.54428 8.57007C2.75638 8.01368 3.14164 7.51023 3.8547 6.89011C4.58005 6.25931 5.58265 5.55879 6.98496 4.58071L6.5559 3.96556ZM1.72547 8.65157L2.44449 8.86491C2.47397 8.76554 2.50726 8.66719 2.54428 8.57007L1.84348 8.30291L1.14267 8.03575C1.09217 8.16822 1.04673 8.30247 1.00645 8.43823L1.72547 8.65157ZM2.88224 14.8197L2.17183 15.0601C2.69701 16.6118 3.10952 17.8339 3.55269 18.7818C4.00407 19.7472 4.51494 20.4919 5.27191 21.0617L5.72297 20.4625L6.17403 19.8633C5.68189 19.4928 5.30293 18.9836 4.9115 18.1464C4.51186 17.2917 4.12855 16.1626 3.59266 14.5792L2.88224 14.8197ZM6.03191 20.678L6.43847 20.0477C6.34794 19.9893 6.25973 19.9278 6.17403 19.8633L5.72297 20.4625L5.27191 21.0617C5.38661 21.148 5.50451 21.2303 5.62536 21.3082L6.03191 20.678ZM22.1178 14.8197L21.4074 14.5792C20.8715 16.1626 20.4882 17.2917 20.0885 18.1464C19.6971 18.9836 19.3181 19.4928 18.826 19.8633L19.277 20.4625L19.7281 21.0617C20.4851 20.4919 20.9959 19.7472 21.4473 18.7818C21.8905 17.8339 22.303 16.6118 22.8282 15.0601L22.1178 14.8197ZM19.277 20.4625L18.826 19.8633C18.7403 19.9278 18.6521 19.9893 18.5615 20.0477L18.9681 20.678L19.3747 21.3082C19.4955 21.2303 19.6134 21.148 19.7281 21.0617L19.277 20.4625ZM18.4441 3.96556L18.0151 4.58071C19.4174 5.55879 20.42 6.25931 21.1453 6.89011C21.8584 7.51023 22.2436 8.01368 22.4557 8.57007L23.1565 8.30291L23.8573 8.03575C23.5239 7.16112 22.9419 6.46467 22.1296 5.75826C21.3296 5.06253 20.2488 4.30988 18.8732 3.35041L18.4441 3.96556ZM22.1178 14.8197L22.8282 15.0601C23.3533 13.5086 23.768 12.2869 23.9899 11.2694C24.2158 10.2338 24.2601 9.33666 23.9936 8.43823L23.2745 8.65157L22.5555 8.86491C22.7238 9.43202 22.7203 10.0514 22.5244 10.9497C22.3245 11.8662 21.9433 12.9956 21.4074 14.5792L22.1178 14.8197ZM23.1565 8.30291L22.4557 8.57007C22.4928 8.66719 22.526 8.76553 22.5555 8.86491L23.2745 8.65157L23.9936 8.43823C23.9533 8.30247 23.9078 8.16822 23.8573 8.03575L23.1565 8.30291ZM18.4441 3.96556L18.8732 3.35041C17.4972 2.39073 16.418 1.63678 15.4823 1.12177C14.531 0.598211 13.6699 0.287372 12.7173 0.253826L12.6909 1.00336L12.6645 1.7529C13.2983 1.77521 13.9247 1.9767 14.759 2.43588C15.6088 2.90362 16.613 3.60283 18.0151 4.58071L18.4441 3.96556ZM6.5559 3.96556L6.98496 4.58071C8.38698 3.60283 9.39117 2.90362 10.241 2.43588C11.0753 1.9767 11.7017 1.77521 12.3355 1.7529L12.3091 1.00336L12.2827 0.253826C11.3301 0.287372 10.469 0.598211 9.51772 1.12177C8.58202 1.63678 7.50276 2.39073 6.12685 3.35041L6.5559 3.96556ZM12.6909 1.00336L12.7173 0.253826C12.5725 0.248725 12.4275 0.248725 12.2827 0.253826L12.3091 1.00336L12.3355 1.7529C12.4451 1.74903 12.5549 1.74903 12.6645 1.7529L12.6909 1.00336ZM16.6667 16.8197H15.9167V20.8197H16.6667H17.4167V16.8197H16.6667ZM8.33334 20.8197H9.08334V16.8197H8.33334H7.58334V20.8197H8.33334ZM12.5 12.8197V13.5697C14.4161 13.5697 15.9167 15.0533 15.9167 16.8197H16.6667H17.4167C17.4167 14.1677 15.1863 12.0697 12.5 12.0697V12.8197ZM12.5 12.8197V12.0697C9.81376 12.0697 7.58334 14.1677 7.58334 16.8197H8.33334H9.08334C9.08334 15.0533 10.5839 13.5697 12.5 13.5697V12.8197ZM12.5 18.8197H13.25V16.8197H12.5H11.75V18.8197H12.5ZM12.5 21.5279V22.2779C14.2776 22.2779 15.6549 22.279 16.7533 22.1513L16.6667 21.4063L16.58 20.6614C15.5884 20.7767 14.3135 20.7779 12.5 20.7779V21.5279ZM16.6667 21.4063L16.7533 22.1513C17.7734 22.0327 18.6163 21.7974 19.3747 21.3082L18.9681 20.678L18.5615 20.0477C18.0628 20.3695 17.4668 20.5582 16.58 20.6614L16.6667 21.4063ZM16.6667 20.8197H15.9167V21.4063H16.6667H17.4167V20.8197H16.6667ZM12.5 21.5279V20.7779C10.6865 20.7779 9.41164 20.7767 8.41997 20.6614L8.33334 21.4063L8.2467 22.1513C9.34508 22.279 10.7224 22.2779 12.5 22.2779V21.5279ZM8.33334 21.4063L8.41997 20.6614C7.53323 20.5582 6.93724 20.3695 6.43847 20.0477L6.03191 20.678L5.62536 21.3082C6.38372 21.7974 7.22663 22.0327 8.2467 22.1513L8.33334 21.4063ZM8.33334 20.8197H7.58334V21.4063H8.33334H9.08334V20.8197H8.33334Z" fill="white"/>
</svg>
