<svg width="24" height="24" viewBox="0 0 24 24" fill="none" xmlns="http://www.w3.org/2000/svg">
<path d="M18.6189 16.512C18.3937 17.7817 18.7223 18.8892 19.6046 19.8343C20.8777 20.0594 21.9857 19.7303 22.9286 18.8469M5.34172 7.49487C5.56572 6.2263 5.23772 5.12173 4.35772 4.18116C3.08915 3.95601 1.98458 4.28401 1.04401 5.16516M12 16.32C10.4349 15.3772 7.84115 13.6714 7.84115 11.5423C7.84094 11.0605 7.97953 10.5888 8.24036 10.1836C8.50118 9.77846 8.8732 9.45703 9.3119 9.25775C9.7506 9.05847 10.2374 8.98978 10.7141 9.05991C11.1908 9.13003 11.6373 9.33599 12 9.65316C12.3627 9.33599 12.8092 9.13003 13.2859 9.05991C13.7626 8.98978 14.2494 9.05847 14.6881 9.25775C15.1268 9.45703 15.4988 9.77846 15.7597 10.1836C16.0205 10.5888 16.1591 11.0605 16.1589 11.5423C16.1571 13.6714 13.5634 15.3754 12 16.32Z" stroke="white" stroke-linecap="round" stroke-linejoin="round"/>
<path d="M14.7857 22.176C13.8669 22.3454 12.9343 22.428 12 22.4229C5.33143 22.4229 1.57715 18.6686 1.57715 12C1.57715 8.64343 2.52686 6.02743 4.32001 4.25486M9.33943 1.80171C10.1669 1.65314 11.0537 1.57886 12 1.57886C18.6686 1.57886 22.4229 5.32971 22.4229 12C22.4229 15.36 21.4697 17.9794 19.6714 19.752" stroke="white" stroke-linecap="round" stroke-linejoin="round"/>
</svg>
