<svg width="80" height="80" viewBox="0 0 80 80" fill="none" xmlns="http://www.w3.org/2000/svg">
<g clip-path="url(#clip0_4650_1762)">
<path fill-rule="evenodd" clip-rule="evenodd" d="M37.465 0.0750044L35.535 0.275004C26.17 1.21 16.735 6.04 10.355 13.17C3.3 21.055 -0.285 30.84 0.0449996 41.265C0.62 59.27 12.995 74.515 30.55 78.855C35.7185 80.1042 41.0837 80.3144 46.3341 79.4732C51.5844 78.632 56.6154 76.7564 61.135 73.955C70.0239 68.4166 76.3861 59.613 78.855 49.435C79.715 45.93 79.915 44.145 79.915 40C79.915 35.855 79.715 34.07 78.855 30.565C74.895 14.39 61.575 2.49 45 0.320004C43.58 0.135004 38.415 -0.0299956 37.465 0.0750044ZM44.265 7.815C47.7189 8.25411 51.0761 9.26279 54.2 10.8C57.69 12.5 60.1 14.23 62.935 17.065C65.5322 19.5757 67.6546 22.5349 69.2 25.8C71.425 30.375 72.43 34.79 72.43 40C72.496 44.9739 71.3642 49.8906 69.13 54.335C68.27 56.09 66.535 58.905 65.725 59.86L65.45 60.185L42.635 37.365L19.815 14.55L20.14 14.275C21.095 13.465 23.91 11.73 25.665 10.87C31.4215 8.01917 37.8991 6.95524 44.265 7.815ZM37.4 42.67L60.2 65.475L59.865 65.74C58.1207 67.027 56.2708 68.1644 54.335 69.14C51.2009 70.6702 47.85 71.709 44.4 72.22C42.28 72.545 37.72 72.545 35.6 72.22C25.86 70.74 17.64 65.425 12.465 57.255C11.192 55.1446 10.1302 52.9138 9.295 50.595C7.33076 44.8236 7.00367 38.621 8.35 32.675C9.38305 28.3766 11.2445 24.3209 13.83 20.735C14.18 20.26 14.495 19.87 14.535 19.87C14.575 19.87 24.86 30.13 37.4 42.67Z" fill="#BDBDBD"/>
</g>
<defs>
<clipPath id="clip0_4650_1762">
<rect width="80" height="80" fill="white"/>
</clipPath>
</defs>
</svg>
