<svg width="27" height="26" viewBox="0 0 27 26" fill="none" xmlns="http://www.w3.org/2000/svg">
<path d="M8.93602 3.63419C10.2938 -0.544731 16.2059 -0.544731 17.5637 3.63419C18.171 5.50307 19.9125 6.76839 21.8776 6.76839C26.2715 6.76839 28.0985 12.3911 24.5437 14.9738C22.9539 16.1288 22.2887 18.1762 22.8959 20.045C24.2537 24.224 19.4708 27.699 15.916 25.1163C14.3262 23.9612 12.1735 23.9612 10.5838 25.1163C7.02896 27.699 2.246 24.224 3.60382 20.045C4.21105 18.1762 3.54583 16.1288 1.95607 14.9738C-1.59873 12.3911 0.228197 6.76839 4.62218 6.76839C6.58723 6.76839 8.32879 5.50307 8.93602 3.63419Z" fill="#A3A3A3"/>
</svg>
