<svg width="27" height="26" viewBox="0 0 27 26" fill="none" xmlns="http://www.w3.org/2000/svg">
<path d="M9.18602 3.63419C10.5438 -0.544731 16.4559 -0.544731 17.8137 3.63419C18.421 5.50307 20.1625 6.76839 22.1276 6.76839C26.5215 6.76839 28.3485 12.3911 24.7937 14.9738C23.2039 16.1288 22.5387 18.1762 23.1459 20.045C24.5037 24.224 19.7208 27.699 16.166 25.1163C14.5762 23.9612 12.4235 23.9612 10.8338 25.1163C7.27896 27.699 2.496 24.224 3.85382 20.045C4.46105 18.1762 3.79583 16.1288 2.20607 14.9738C-1.34873 12.3911 0.478197 6.76839 4.87218 6.76839C6.83723 6.76839 8.57879 5.50307 9.18602 3.63419Z" fill="#FECD4C"/>
</svg>
