<svg width="14" height="14" viewBox="0 0 14 14" fill="none" xmlns="http://www.w3.org/2000/svg">
<g clip-path="url(#clip0_4650_953)">
<path d="M13.5625 5.03125H8.55312L7 0.4375L5.44688 5.03125H0.4375L4.48438 7.875L2.93125 12.4688L7 9.625L11.0469 12.4688L9.49375 7.875L13.5625 5.03125Z" fill="#FFCE31"/>
<path d="M10.1062 4.44063L10.9812 1.94688L8.68435 3.52188L9.01248 4.44063H10.1062ZM6.1031 10.9375L6.99998 13.5625L7.89685 10.9375L6.99998 10.325L6.1031 10.9375ZM11.0906 7.50313L10.2594 8.07188L10.6094 9.12188H13.4312L11.0906 7.50313ZM5.3156 3.52188L3.01873 1.94688L3.89373 4.44063H4.98747L5.3156 3.52188ZM2.90935 7.50313L0.568726 9.12188H3.3906L3.7406 8.07188L2.90935 7.50313Z" fill="#FFDF85"/>
</g>
<defs>
<clipPath id="clip0_4650_953">
<rect width="14" height="14" fill="white"/>
</clipPath>
</defs>
</svg>
