<svg width="142" height="142" viewBox="0 0 142 142" fill="none" xmlns="http://www.w3.org/2000/svg">
<g clip-path="url(#clip0_4650_2860)">
<path d="M71 7.88889C58.5178 7.88889 46.3159 11.5903 35.9373 18.525C25.5588 25.4598 17.4697 35.3164 12.6929 46.8484C7.91621 58.3805 6.6664 71.07 9.10155 83.3124C11.5367 95.5547 17.5475 106.8 26.3737 115.626C35.2 124.453 46.4453 130.463 58.6876 132.898C70.93 135.334 83.6195 134.084 95.1516 129.307C106.684 124.53 116.54 116.441 123.475 106.063C130.41 95.6841 134.111 83.4822 134.111 71C134.111 54.2619 127.462 38.2093 115.626 26.3737C103.791 14.5381 87.7381 7.88889 71 7.88889ZM112.219 49.8183L60.3895 101.609L29.7806 71C28.7344 69.9539 28.1467 68.535 28.1467 67.0556C28.1467 65.5761 28.7344 64.1572 29.7806 63.1111C30.8267 62.065 32.2455 61.4773 33.725 61.4773C35.2045 61.4773 36.6233 62.065 37.6694 63.1111L60.4683 85.91L104.409 42.0083C104.927 41.4903 105.542 41.0794 106.219 40.7991C106.896 40.5188 107.621 40.3745 108.354 40.3745C109.086 40.3745 109.812 40.5188 110.489 40.7991C111.165 41.0794 111.78 41.4903 112.298 42.0083C112.816 42.5263 113.227 43.1413 113.508 43.8181C113.788 44.4949 113.932 45.2202 113.932 45.9528C113.932 46.6853 113.788 47.4107 113.508 48.0875C113.227 48.7643 112.816 49.3792 112.298 49.8972L112.219 49.8183Z" fill="#FECD4C"/>
</g>
<defs>
<clipPath id="clip0_4650_2860">
<rect width="142" height="142" fill="white"/>
</clipPath>
</defs>
</svg>
